<svg width="1805" height="170" viewBox="0 0 1805 170" fill="none" xmlns="http://www.w3.org/2000/svg">
<mask id="path-1-outside-1_1789_3352" maskUnits="userSpaceOnUse" x="0" y="0" width="1805" height="170" fill="black">
<rect fill="white" width="1805" height="170"/>
<path d="M3 5.17756H56.8168L93.8352 95.3906H95.7017L132.72 5.17756H186.537V164.45H144.23V72.3707H142.986L107.523 163.206H82.0142L46.5511 71.7486H45.3068V164.45H3V5.17756ZM207.067 5.17756H255.284L286.392 69.8821H287.636L318.744 5.17756H366.962L308.479 114.366V164.45H265.55V114.366L207.067 5.17756ZM393.324 40.0185V5.17756H531.754V40.0185H483.848V164.45H441.23V40.0185H393.324ZM554.598 164.45V5.17756H623.346C635.167 5.17756 645.511 7.32919 654.376 11.6325C663.242 15.9357 670.138 22.1314 675.063 30.2195C679.989 38.3075 682.451 48.0028 682.451 59.3054C682.451 70.7117 679.911 80.3292 674.83 88.158C669.801 95.9869 662.724 101.897 653.599 105.89C644.526 109.882 633.923 111.878 621.791 111.878H580.728V78.2813H613.081C618.162 78.2813 622.491 77.6591 626.068 76.4148C629.698 75.1186 632.471 73.0707 634.39 70.271C636.36 67.4712 637.345 63.8161 637.345 59.3054C637.345 54.7429 636.36 51.0359 634.39 48.1843C632.471 45.2809 629.698 43.1552 626.068 41.8072C622.491 40.4073 618.162 39.7074 613.081 39.7074H597.838V164.45H554.598ZM647.922 91.3466L687.74 164.45H640.767L601.882 91.3466H647.922ZM801.71 5.17756H844.95V107.212C844.95 119.344 842.047 129.843 836.24 138.708C830.485 147.522 822.449 154.34 812.131 159.162C801.814 163.932 789.837 166.317 776.201 166.317C762.462 166.317 750.434 163.932 740.116 159.162C729.799 154.34 721.763 147.522 716.008 138.708C710.304 129.843 707.453 119.344 707.453 107.212V5.17756H750.693V103.479C750.693 108.404 751.782 112.811 753.959 116.7C756.137 120.536 759.144 123.543 762.981 125.721C766.869 127.898 771.276 128.987 776.201 128.987C781.179 128.987 785.586 127.898 789.422 125.721C793.259 123.543 796.266 120.536 798.444 116.7C800.621 112.811 801.71 108.404 801.71 103.479V5.17756ZM872.071 164.45V5.17756H986.859V40.0185H915.311V67.3935H980.949V102.234H915.311V129.609H986.548V164.45H872.071ZM1163.57 64.9048H1119.71C1119.4 61.2756 1118.57 57.9833 1117.22 55.0281C1115.92 52.0728 1114.11 49.5323 1111.78 47.4066C1109.49 45.229 1106.72 43.57 1103.45 42.4293C1100.19 41.2369 1096.48 40.6406 1092.33 40.6406C1085.07 40.6406 1078.93 42.4034 1073.9 45.929C1068.92 49.4545 1065.14 54.5096 1062.55 61.0941C1060.01 67.6786 1058.74 75.5852 1058.74 84.8139C1058.74 94.5611 1060.03 102.727 1062.62 109.311C1065.27 115.844 1069.08 120.77 1074.06 124.088C1079.03 127.354 1085.02 128.987 1092.02 128.987C1096.01 128.987 1099.59 128.495 1102.75 127.51C1105.92 126.473 1108.66 124.995 1111 123.077C1113.33 121.158 1115.22 118.851 1116.67 116.155C1118.18 113.407 1119.19 110.322 1119.71 106.901L1163.57 107.212C1163.05 113.952 1161.16 120.821 1157.89 127.821C1154.63 134.768 1149.99 141.197 1143.97 147.108C1138.01 152.966 1130.62 157.684 1121.81 161.262C1112.99 164.839 1102.75 166.628 1091.09 166.628C1076.47 166.628 1063.35 163.491 1051.74 157.218C1040.18 150.944 1031.02 141.716 1024.28 129.532C1017.6 117.348 1014.25 102.442 1014.25 84.8139C1014.25 67.0824 1017.67 52.1506 1024.52 40.0185C1031.36 27.8345 1040.59 18.6317 1052.2 12.4102C1063.82 6.13672 1076.78 3 1091.09 3C1101.15 3 1110.4 4.37393 1118.85 7.1218C1127.3 9.86967 1134.72 13.8878 1141.09 19.1761C1147.47 24.4126 1152.6 30.8675 1156.49 38.5408C1160.38 46.2141 1162.74 55.0021 1163.57 64.9048ZM1189.76 164.45V5.17756H1233V129.609H1297.39V164.45H1189.76ZM1469.53 84.8139C1469.53 102.545 1466.09 117.503 1459.19 129.687C1452.29 141.819 1442.99 151.022 1431.27 157.295C1419.55 163.517 1406.49 166.628 1392.07 166.628C1377.56 166.628 1364.44 163.491 1352.72 157.218C1341.06 150.892 1331.78 141.664 1324.88 129.532C1318.04 117.348 1314.62 102.442 1314.62 84.8139C1314.62 67.0824 1318.04 52.1506 1324.88 40.0185C1331.78 27.8345 1341.06 18.6317 1352.72 12.4102C1364.44 6.13672 1377.56 3 1392.07 3C1406.49 3 1419.55 6.13672 1431.27 12.4102C1442.99 18.6317 1452.29 27.8345 1459.19 40.0185C1466.09 52.1506 1469.53 67.0824 1469.53 84.8139ZM1425.05 84.8139C1425.05 75.2742 1423.78 67.2379 1421.24 60.7053C1418.75 54.1207 1415.04 49.1435 1410.12 45.7734C1405.24 42.3516 1399.23 40.6406 1392.07 40.6406C1384.92 40.6406 1378.88 42.3516 1373.95 45.7734C1369.08 49.1435 1365.37 54.1207 1362.83 60.7053C1360.34 67.2379 1359.1 75.2742 1359.1 84.8139C1359.1 94.3537 1360.34 102.416 1362.83 109C1365.37 115.533 1369.08 120.51 1373.95 123.932C1378.88 127.302 1384.92 128.987 1392.07 128.987C1399.23 128.987 1405.24 127.302 1410.12 123.932C1415.04 120.51 1418.75 115.533 1421.24 109C1423.78 102.416 1425.05 94.3537 1425.05 84.8139ZM1590.37 5.17756H1633.61V107.212C1633.61 119.344 1630.7 129.843 1624.9 138.708C1619.14 147.522 1611.11 154.34 1600.79 159.162C1590.47 163.932 1578.49 166.317 1564.86 166.317C1551.12 166.317 1539.09 163.932 1528.77 159.162C1518.46 154.34 1510.42 147.522 1504.66 138.708C1498.96 129.843 1496.11 119.344 1496.11 107.212V5.17756H1539.35V103.479C1539.35 108.404 1540.44 112.811 1542.62 116.7C1544.79 120.536 1547.8 123.543 1551.64 125.721C1555.53 127.898 1559.93 128.987 1564.86 128.987C1569.84 128.987 1574.24 127.898 1578.08 125.721C1581.92 123.543 1584.92 120.536 1587.1 116.7C1589.28 112.811 1590.37 108.404 1590.37 103.479V5.17756ZM1722.01 164.45H1660.73V5.17756H1721.39C1737.77 5.17756 1751.93 8.36612 1763.85 14.7433C1775.83 21.0685 1785.06 30.1935 1791.54 42.1183C1798.07 53.9911 1801.34 68.223 1801.34 84.8139C1801.34 101.405 1798.09 115.663 1791.61 127.587C1785.13 139.46 1775.96 148.585 1764.08 154.962C1752.21 161.288 1738.19 164.45 1722.01 164.45ZM1703.97 127.743H1720.45C1728.34 127.743 1735.05 126.473 1740.6 123.932C1746.2 121.392 1750.45 117.011 1753.35 110.789C1756.31 104.567 1757.78 95.9091 1757.78 84.8139C1757.78 73.7188 1756.28 65.0604 1753.27 58.8388C1750.32 52.6172 1745.96 48.2361 1740.21 45.6957C1734.51 43.1552 1727.51 41.8849 1719.21 41.8849H1703.97V127.743Z"/>
</mask>
<path d="M3 5.17756H56.8168L93.8352 95.3906H95.7017L132.72 5.17756H186.537V164.45H144.23V72.3707H142.986L107.523 163.206H82.0142L46.5511 71.7486H45.3068V164.45H3V5.17756ZM207.067 5.17756H255.284L286.392 69.8821H287.636L318.744 5.17756H366.962L308.479 114.366V164.45H265.55V114.366L207.067 5.17756ZM393.324 40.0185V5.17756H531.754V40.0185H483.848V164.45H441.23V40.0185H393.324ZM554.598 164.45V5.17756H623.346C635.167 5.17756 645.511 7.32919 654.376 11.6325C663.242 15.9357 670.138 22.1314 675.063 30.2195C679.989 38.3075 682.451 48.0028 682.451 59.3054C682.451 70.7117 679.911 80.3292 674.83 88.158C669.801 95.9869 662.724 101.897 653.599 105.89C644.526 109.882 633.923 111.878 621.791 111.878H580.728V78.2813H613.081C618.162 78.2813 622.491 77.6591 626.068 76.4148C629.698 75.1186 632.471 73.0707 634.39 70.271C636.36 67.4712 637.345 63.8161 637.345 59.3054C637.345 54.7429 636.36 51.0359 634.39 48.1843C632.471 45.2809 629.698 43.1552 626.068 41.8072C622.491 40.4073 618.162 39.7074 613.081 39.7074H597.838V164.45H554.598ZM647.922 91.3466L687.74 164.45H640.767L601.882 91.3466H647.922ZM801.71 5.17756H844.95V107.212C844.95 119.344 842.047 129.843 836.24 138.708C830.485 147.522 822.449 154.34 812.131 159.162C801.814 163.932 789.837 166.317 776.201 166.317C762.462 166.317 750.434 163.932 740.116 159.162C729.799 154.34 721.763 147.522 716.008 138.708C710.304 129.843 707.453 119.344 707.453 107.212V5.17756H750.693V103.479C750.693 108.404 751.782 112.811 753.959 116.7C756.137 120.536 759.144 123.543 762.981 125.721C766.869 127.898 771.276 128.987 776.201 128.987C781.179 128.987 785.586 127.898 789.422 125.721C793.259 123.543 796.266 120.536 798.444 116.7C800.621 112.811 801.71 108.404 801.71 103.479V5.17756ZM872.071 164.45V5.17756H986.859V40.0185H915.311V67.3935H980.949V102.234H915.311V129.609H986.548V164.45H872.071ZM1163.57 64.9048H1119.71C1119.4 61.2756 1118.57 57.9833 1117.22 55.0281C1115.92 52.0728 1114.11 49.5323 1111.78 47.4066C1109.49 45.229 1106.72 43.57 1103.45 42.4293C1100.19 41.2369 1096.48 40.6406 1092.33 40.6406C1085.07 40.6406 1078.93 42.4034 1073.9 45.929C1068.92 49.4545 1065.14 54.5096 1062.55 61.0941C1060.01 67.6786 1058.74 75.5852 1058.74 84.8139C1058.74 94.5611 1060.03 102.727 1062.62 109.311C1065.27 115.844 1069.08 120.77 1074.06 124.088C1079.03 127.354 1085.02 128.987 1092.02 128.987C1096.01 128.987 1099.59 128.495 1102.75 127.51C1105.92 126.473 1108.66 124.995 1111 123.077C1113.33 121.158 1115.22 118.851 1116.67 116.155C1118.18 113.407 1119.19 110.322 1119.71 106.901L1163.57 107.212C1163.05 113.952 1161.16 120.821 1157.89 127.821C1154.63 134.768 1149.99 141.197 1143.97 147.108C1138.01 152.966 1130.62 157.684 1121.81 161.262C1112.99 164.839 1102.75 166.628 1091.09 166.628C1076.47 166.628 1063.35 163.491 1051.74 157.218C1040.18 150.944 1031.02 141.716 1024.28 129.532C1017.6 117.348 1014.25 102.442 1014.25 84.8139C1014.25 67.0824 1017.67 52.1506 1024.52 40.0185C1031.36 27.8345 1040.59 18.6317 1052.2 12.4102C1063.82 6.13672 1076.78 3 1091.09 3C1101.15 3 1110.4 4.37393 1118.85 7.1218C1127.3 9.86967 1134.72 13.8878 1141.09 19.1761C1147.47 24.4126 1152.6 30.8675 1156.49 38.5408C1160.38 46.2141 1162.74 55.0021 1163.57 64.9048ZM1189.76 164.45V5.17756H1233V129.609H1297.39V164.45H1189.76ZM1469.53 84.8139C1469.53 102.545 1466.09 117.503 1459.19 129.687C1452.29 141.819 1442.99 151.022 1431.27 157.295C1419.55 163.517 1406.49 166.628 1392.07 166.628C1377.56 166.628 1364.44 163.491 1352.72 157.218C1341.06 150.892 1331.78 141.664 1324.88 129.532C1318.04 117.348 1314.62 102.442 1314.62 84.8139C1314.62 67.0824 1318.04 52.1506 1324.88 40.0185C1331.78 27.8345 1341.06 18.6317 1352.72 12.4102C1364.44 6.13672 1377.56 3 1392.07 3C1406.49 3 1419.55 6.13672 1431.27 12.4102C1442.99 18.6317 1452.29 27.8345 1459.19 40.0185C1466.09 52.1506 1469.53 67.0824 1469.53 84.8139ZM1425.05 84.8139C1425.05 75.2742 1423.78 67.2379 1421.24 60.7053C1418.75 54.1207 1415.04 49.1435 1410.12 45.7734C1405.24 42.3516 1399.23 40.6406 1392.07 40.6406C1384.92 40.6406 1378.88 42.3516 1373.95 45.7734C1369.08 49.1435 1365.37 54.1207 1362.83 60.7053C1360.34 67.2379 1359.1 75.2742 1359.1 84.8139C1359.1 94.3537 1360.34 102.416 1362.83 109C1365.37 115.533 1369.08 120.51 1373.95 123.932C1378.88 127.302 1384.92 128.987 1392.07 128.987C1399.23 128.987 1405.24 127.302 1410.12 123.932C1415.04 120.51 1418.75 115.533 1421.24 109C1423.78 102.416 1425.05 94.3537 1425.05 84.8139ZM1590.37 5.17756H1633.61V107.212C1633.61 119.344 1630.7 129.843 1624.9 138.708C1619.14 147.522 1611.11 154.34 1600.79 159.162C1590.47 163.932 1578.49 166.317 1564.86 166.317C1551.12 166.317 1539.09 163.932 1528.77 159.162C1518.46 154.34 1510.42 147.522 1504.66 138.708C1498.96 129.843 1496.11 119.344 1496.11 107.212V5.17756H1539.35V103.479C1539.35 108.404 1540.44 112.811 1542.62 116.7C1544.79 120.536 1547.8 123.543 1551.64 125.721C1555.53 127.898 1559.93 128.987 1564.86 128.987C1569.84 128.987 1574.24 127.898 1578.08 125.721C1581.92 123.543 1584.92 120.536 1587.1 116.7C1589.28 112.811 1590.37 108.404 1590.37 103.479V5.17756ZM1722.01 164.45H1660.73V5.17756H1721.39C1737.77 5.17756 1751.93 8.36612 1763.85 14.7433C1775.83 21.0685 1785.06 30.1935 1791.54 42.1183C1798.07 53.9911 1801.34 68.223 1801.34 84.8139C1801.34 101.405 1798.09 115.663 1791.61 127.587C1785.13 139.46 1775.96 148.585 1764.08 154.962C1752.21 161.288 1738.19 164.45 1722.01 164.45ZM1703.97 127.743H1720.45C1728.34 127.743 1735.05 126.473 1740.6 123.932C1746.2 121.392 1750.45 117.011 1753.35 110.789C1756.31 104.567 1757.78 95.9091 1757.78 84.8139C1757.78 73.7188 1756.28 65.0604 1753.27 58.8388C1750.32 52.6172 1745.96 48.2361 1740.21 45.6957C1734.51 43.1552 1727.51 41.8849 1719.21 41.8849H1703.97V127.743Z" stroke="#A8DDFF" stroke-width="6" mask="url(#path-1-outside-1_1789_3352)"/>
</svg>
